<svg xmlns="http://www.w3.org/2000/svg" viewBox="0 0 512 512">
  <rect width="512" height="512" rx="153" fill="#38bdf8"/>
  <path d="M505.12 19.56c-1.89-6.3-7.58-10.74-14.12-10.74C328.79 8.82 256.32 46.12 211.23 91.21L155.6 146.84c-12.72 12.72-29.44 20.9-47.53 23.36L26.31 181.16c-15.11 2-25.04 16.14-22.13 31.06l30.01 154.2c3.09 15.85 18.06 25.43 33.8 21.65l66.9-16.03c16.37-3.92 31.78-11.96 45.2-23.4l7.19-6.13c5.38 5.38 10.96 10.6 16.71 15.65-4.8 5.76-9.98 11.39-15.42 16.83l-6.13 7.19c-11.44 13.42-19.48 28.83-23.4 45.2l-16.03 66.9c-3.78 15.74 5.8 30.71 21.65 33.8l154.2 30.01c14.92 2.91 29.06-7.02 31.06-22.13l10.96-81.76c2.46-18.09 10.64-34.81 23.36-47.53l55.63-55.63c45.09-45.09 82.39-117.56 82.39-279.79 0-6.54-4.44-12.23-10.74-14.12zM368 224c-26.51 0-48-21.49-48-48s21.49-48 48-48 48 21.49 48 48-21.49 48-48 48z" fill="white" transform="scale(0.6) translate(170, 170)"/>
</svg>